<?xml version="1.0" encoding="UTF-8" standalone="no"?>
<!DOCTYPE svg PUBLIC "-//W3C//DTD SVG 1.1//EN"
 "http://www.w3.org/Graphics/SVG/1.1/DTD/svg11.dtd">
<!-- Generated by graphviz version 2.46.0 (20210119.1425)
 -->
<!-- Title: dependencies Pages: 1 -->
<svg width="504pt" height="287pt"
 viewBox="0.00 0.00 504.00 287.00" xmlns="http://www.w3.org/2000/svg" xmlns:xlink="http://www.w3.org/1999/xlink">
<g id="graph0" class="graph" transform="scale(1 1) rotate(0) translate(4 283)">
<title>dependencies</title>
<polygon fill="white" stroke="transparent" points="-4,4 -4,-283 500,-283 500,4 -4,4"/>
<text text-anchor="start" x="227.01" y="-42.4" font-family="sans-serif" font-weight="bold" font-size="14.00">Legend</text>
<polygon fill="#ffffb3" stroke="transparent" points="14,-10 14,-30 34,-30 34,-10 14,-10"/>
<text text-anchor="start" x="37.63" y="-15.4" font-family="sans-serif" font-size="14.00"> &#160;Declarations</text>
<polygon fill="#8dd3c7" stroke="transparent" points="127,-10 127,-30 147,-30 147,-10 127,-10"/>
<text text-anchor="start" x="150.73" y="-15.4" font-family="sans-serif" font-size="14.00"> &#160;Module</text>
<polygon fill="#80b1d3" stroke="transparent" points="213,-10 213,-30 233,-30 233,-10 213,-10"/>
<text text-anchor="start" x="236.78" y="-15.4" font-family="sans-serif" font-size="14.00"> &#160;Bootstrap</text>
<polygon fill="#fdb462" stroke="transparent" points="310,-10 310,-30 330,-30 330,-10 310,-10"/>
<text text-anchor="start" x="333.67" y="-15.4" font-family="sans-serif" font-size="14.00"> &#160;Providers</text>
<polygon fill="#fb8072" stroke="transparent" points="406,-10 406,-30 426,-30 426,-10 406,-10"/>
<text text-anchor="start" x="429.73" y="-15.4" font-family="sans-serif" font-size="14.00"> &#160;Exports</text>
<g id="clust1" class="cluster">
<title>cluster_AppModule</title>
<polygon fill="none" stroke="black" stroke-dasharray="1,5" points="107.5,-146 107.5,-271 371.5,-271 371.5,-146 107.5,-146"/>
</g>
<g id="clust3" class="cluster">
<title>cluster_AppModule_imports</title>
<polygon fill="none" stroke="black" points="253.5,-154 253.5,-206 363.5,-206 363.5,-154 253.5,-154"/>
</g>
<g id="clust6" class="cluster">
<title>cluster_AppModule_providers</title>
<polygon fill="none" stroke="black" points="115.5,-154 115.5,-206 245.5,-206 245.5,-154 115.5,-154"/>
</g>
<g id="clust7" class="cluster">
<title>cluster_TodosModule</title>
<polygon fill="none" stroke="black" stroke-dasharray="1,5" points="228.5,-70 228.5,-138 388.5,-138 388.5,-70 228.5,-70"/>
</g>
<g id="clust12" class="cluster">
<title>cluster_TodosModule_providers</title>
<polygon fill="none" stroke="black" points="236.5,-78 236.5,-130 380.5,-130 380.5,-78 236.5,-78"/>
</g>
<!-- TodosModule -->
<g id="node1" class="node">
<title>TodosModule</title>
<polygon fill="#8dd3c7" stroke="black" points="355.55,-198 352.55,-202 331.55,-202 328.55,-198 261.45,-198 261.45,-162 355.55,-162 355.55,-198"/>
<text text-anchor="middle" x="308.5" y="-175.8" font-family="Times,serif" font-size="14.00">TodosModule</text>
</g>
<!-- AppModule -->
<g id="node2" class="node">
<title>AppModule</title>
<polygon fill="#8dd3c7" stroke="black" points="286.16,-263 283.16,-267 262.16,-267 259.16,-263 202.84,-263 202.84,-227 286.16,-227 286.16,-263"/>
<text text-anchor="middle" x="244.5" y="-240.8" font-family="Times,serif" font-size="14.00">AppModule</text>
</g>
<!-- TodosModule&#45;&gt;AppModule -->
<g id="edge1" class="edge">
<title>TodosModule&#45;&gt;AppModule</title>
<path fill="none" stroke="black" d="M273.78,-198.11C273.78,-198.11 273.78,-216.99 273.78,-216.99"/>
<polygon fill="black" stroke="black" points="270.28,-216.99 273.78,-226.99 277.28,-216.99 270.28,-216.99"/>
</g>
<!-- AppService -->
<g id="node3" class="node">
<title>AppService</title>
<ellipse fill="#fdb462" stroke="black" cx="180.5" cy="-180" rx="56.74" ry="18"/>
<text text-anchor="middle" x="180.5" y="-175.8" font-family="Times,serif" font-size="14.00">AppService</text>
</g>
<!-- AppService&#45;&gt;AppModule -->
<g id="edge2" class="edge">
<title>AppService&#45;&gt;AppModule</title>
<path fill="none" stroke="black" d="M219.9,-193.15C219.9,-193.15 219.9,-216.69 219.9,-216.69"/>
<polygon fill="black" stroke="black" points="216.4,-216.69 219.9,-226.69 223.4,-216.69 216.4,-216.69"/>
</g>
<!-- TodosService -->
<g id="node4" class="node">
<title>TodosService</title>
<ellipse fill="#fdb462" stroke="black" cx="308.5" cy="-104" rx="64.26" ry="18"/>
<text text-anchor="middle" x="308.5" y="-99.8" font-family="Times,serif" font-size="14.00">TodosService</text>
</g>
<!-- TodosService&#45;&gt;TodosModule -->
<g id="edge3" class="edge">
<title>TodosService&#45;&gt;TodosModule</title>
<path fill="none" stroke="black" d="M308.5,-122.01C308.5,-122.01 308.5,-151.85 308.5,-151.85"/>
<polygon fill="black" stroke="black" points="305,-151.85 308.5,-161.85 312,-151.85 305,-151.85"/>
</g>
</g>
</svg>
